<svg xmlns="http://www.w3.org/2000/svg" viewBox="0 0 344.49998 126.30002">
  <defs>
    <style>
      .cls-1 {
        fill: #fff;
      }

      .cls-2 {
        fill: #dc735b;
      }
    </style>
  </defs>
  <g id="Livello_2" data-name="Livello 2">
    <g id="Livello_1-2" data-name="Livello 1">
      <g>
        <rect class="cls-1" width="344.49998" height="126.30002"/>
        <g>
          <path class="cls-2" d="M126.3,79.9V46.5h12.1a18.13377,18.13377,0,0,1,7.2,1.3,13.812,13.812,0,0,1,5.1,3.6,14.82872,14.82872,0,0,1,3.1,5.3,19.67737,19.67737,0,0,1,1,6.5,19.23075,19.23075,0,0,1-1.2,6.9,15.86789,15.86789,0,0,1-3.3,5.3,14.24221,14.24221,0,0,1-5.2,3.4,18.30751,18.30751,0,0,1-6.8,1.2h-12Zm22.1-16.7a12.31731,12.31731,0,0,0-.7-4.4,10.77835,10.77835,0,0,0-1.9-3.5,8.97785,8.97785,0,0,0-3.1-2.3,10.8425,10.8425,0,0,0-4.2-.8h-5.6v22h5.6a11.75789,11.75789,0,0,0,4.3-.8,8.97849,8.97849,0,0,0,3.1-2.3,10.77824,10.77824,0,0,0,1.9-3.5A16.11419,16.11419,0,0,0,148.4,63.2Z"/>
          <path class="cls-2" d="M182.9,74.2v5.7H159.7V46.5h22.8v5.7H166.2v8h14v5.3h-14v8.7h16.7Z"/>
          <path class="cls-2" d="M210,55.3a8.93719,8.93719,0,0,0-1.2-.9,20.13956,20.13956,0,0,0-2.1-1.1,10.708,10.708,0,0,0-2.7-.9,15.4375,15.4375,0,0,0-3-.4,6.385,6.385,0,0,0-4,1,3.28523,3.28523,0,0,0-1.3,2.8,2.86035,2.86035,0,0,0,.5,1.7,3.32533,3.32533,0,0,0,1.4,1.2,9.30822,9.30822,0,0,0,2.4.9q1.5.45,3.3.9a38.122,38.122,0,0,1,4.4,1.4,11.134,11.134,0,0,1,3.4,1.9,8.14014,8.14014,0,0,1,2.9,6.6,9.4689,9.4689,0,0,1-1,4.6,9.05615,9.05615,0,0,1-2.7,3.1,10.54157,10.54157,0,0,1-3.9,1.7,17.8443,17.8443,0,0,1-4.7.5,26.51715,26.51715,0,0,1-7.4-1.1,25.23341,25.23341,0,0,1-6.6-3.2l2.9-5.6a7.25251,7.25251,0,0,0,1.5,1.1,20.37223,20.37223,0,0,0,2.6,1.4,25.32741,25.32741,0,0,0,3.3,1.2,15.82837,15.82837,0,0,0,3.8.5c3.6,0,5.4-1.1,5.4-3.4a2.792,2.792,0,0,0-.6-1.8,5.86086,5.86086,0,0,0-1.7-1.3,16.93011,16.93011,0,0,0-2.7-1c-1.1-.3-2.3-.7-3.6-1a29.45405,29.45405,0,0,1-4.2-1.4,8.99371,8.99371,0,0,1-2.9-1.8,6.89829,6.89829,0,0,1-1.8-2.4,8.10917,8.10917,0,0,1-.6-3.3,10.63224,10.63224,0,0,1,.9-4.5,9.30857,9.30857,0,0,1,2.6-3.3,11.98269,11.98269,0,0,1,3.9-2,14.87448,14.87448,0,0,1,4.7-.7,19.26159,19.26159,0,0,1,6.5,1.1,22.95853,22.95853,0,0,1,5.2,2.6Z"/>
          <path class="cls-2" d="M246.9,79.9V57.8l-8.6,16.5h-3.5l-8.6-16.5V79.9h-6.5V46.5h7l9.9,19,10-19h6.9V79.9Z"/>
          <path class="cls-2" d="M274.8,80.1a16.39256,16.39256,0,0,1-6.7-1.4,16.21287,16.21287,0,0,1-5.1-3.8,18.66145,18.66145,0,0,1-3.3-5.4,16.80675,16.80675,0,0,1-1.2-6.3,17.32363,17.32363,0,0,1,1.2-6.4,18.96362,18.96362,0,0,1,3.4-5.4,16.1478,16.1478,0,0,1,11.7-5.1,14.54888,14.54888,0,0,1,6.6,1.5,16.49038,16.49038,0,0,1,5.1,3.9,17.90985,17.90985,0,0,1,3.3,5.5,16.67567,16.67567,0,0,1,1.2,6.2,17.71342,17.71342,0,0,1-1.2,6.4,17.00166,17.00166,0,0,1-3.4,5.4,15.00265,15.00265,0,0,1-11.6,4.9Zm-9.7-16.9a13.04993,13.04993,0,0,0,2.6,7.8,8.56715,8.56715,0,0,0,3.1,2.5,9.145,9.145,0,0,0,4.1.9,8.16453,8.16453,0,0,0,4.2-1,9.5802,9.5802,0,0,0,3.1-2.6,12.43828,12.43828,0,0,0,1.9-3.6,14.0255,14.0255,0,0,0,.6-4.1,12.34359,12.34359,0,0,0-.7-4.2,15.46473,15.46473,0,0,0-1.9-3.6,8.567,8.567,0,0,0-3.1-2.5,9.1449,9.1449,0,0,0-4.1-.9,8.1646,8.1646,0,0,0-4.2,1,10.67274,10.67274,0,0,0-3.1,2.5,13.69586,13.69586,0,0,0-1.9,3.6A21.25391,21.25391,0,0,0,265.1,63.2Z"/>
          <path class="cls-2" d="M316.2,55.3a8.93612,8.93612,0,0,0-1.2-.9,20.13787,20.13787,0,0,0-2.1-1.1,10.70791,10.70791,0,0,0-2.7-.9,15.4375,15.4375,0,0,0-3-.4,6.385,6.385,0,0,0-4,1,3.28514,3.28514,0,0,0-1.3,2.8,2.86035,2.86035,0,0,0,.5,1.7,3.32536,3.32536,0,0,0,1.4,1.2,9.30814,9.30814,0,0,0,2.4.9q1.5.45,3.3.9a38.12863,38.12863,0,0,1,4.4,1.4,11.13438,11.13438,0,0,1,3.4,1.9,8.14029,8.14029,0,0,1,2.9,6.6,9.469,9.469,0,0,1-1,4.6,9.05594,9.05594,0,0,1-2.7,3.1,10.54133,10.54133,0,0,1-3.9,1.7,17.8443,17.8443,0,0,1-4.7.5,26.51753,26.51753,0,0,1-7.4-1.1,25.23276,25.23276,0,0,1-6.6-3.2l2.9-5.6a7.25251,7.25251,0,0,0,1.5,1.1,20.37237,20.37237,0,0,0,2.6,1.4,25.32543,25.32543,0,0,0,3.3,1.2,15.82829,15.82829,0,0,0,3.8.5c3.6,0,5.4-1.1,5.4-3.4a2.792,2.792,0,0,0-.6-1.8,5.86113,5.86113,0,0,0-1.7-1.3,16.93,16.93,0,0,0-2.7-1c-1.1-.3-2.3-.7-3.6-1a29.45575,29.45575,0,0,1-4.2-1.4,8.99426,8.99426,0,0,1-2.9-1.8,6.8978,6.8978,0,0,1-1.8-2.4,8.10852,8.10852,0,0,1-.6-3.3,10.63163,10.63163,0,0,1,.9-4.5,9.30846,9.30846,0,0,1,2.6-3.3,11.9827,11.9827,0,0,1,3.9-2,14.87431,14.87431,0,0,1,4.7-.7,19.2615,19.2615,0,0,1,6.5,1.1,22.95845,22.95845,0,0,1,5.2,2.6Z"/>
        </g>
        <path class="cls-2" d="M89.9,76.9a27.0209,27.0209,0,0,0,4.9-12,25.55784,25.55784,0,0,0-1.7-12.2c3.6,5.4,5.6,11.4,4.9,17.4-.9,7.5-7.1,17.6-21.4,24.8C84.2,89.2,88.3,82.6,89.9,76.9M30.3,58.7C30,77.5,32.8,89.4,38.6,94a14.04017,14.04017,0,0,0,1.8,1.2,13.98252,13.98252,0,0,0,3.5,4.3c2.5,2,6.3,3.2,10.8,3.2-8.2,2-15.2,1.5-19.1-1.6-5.2-4.2-7.8-15.5-7.5-33.6.2-12.2,1.3-21.3,3.5-27.2a151.02643,151.02643,0,0,0-1.3,18.4M45.4,27.4a10.03954,10.03954,0,0,0-2,1.6,13.48136,13.48136,0,0,0-7,1.4c1.3-3.2,2.9-5.4,4.9-6.7a11.71265,11.71265,0,0,1,6.1-1.4c6.3,0,14.8,3.1,23,8.3-10.3-5-19.9-6.4-25-3.2m-8.5,5.2a11.279,11.279,0,0,1,4.7-1.4c-3.8,5.8-5.8,16.6-6,33-.2,11.6.8,20.5,3,26.8-4.3-5-6.4-15.8-6.1-32.2.1-10.5,1-18.7,2.6-24.6a12.93876,12.93876,0,0,1,1.8-1.6M92.7,64.7a23.9936,23.9936,0,0,1-2,6.7c.2-13.3-11.4-25.7-22.8-33.2-7.5-4.9-15.1-7.9-21.4-8.8h0A11.71264,11.71264,0,0,1,52.6,28c6.5,0,15.4,3.3,23.8,8.8a72.705,72.705,0,0,1,8.4,6.5c5.3,6.3,8.8,13.7,7.9,21.4M67.4,91.2C57.2,95.5,47.6,96.3,42,93.6c-3-5.8-4.4-15.6-4.2-29.3.2-17.2,2.4-28.1,6.6-33,6.2.4,14.4,3.5,22.4,8.7,11.5,7.6,23.3,20.3,21.7,33.5-.1.8-.3,1.6-.5,2.5-4,5.5-10.6,11-20.6,15.2M45.3,97.8c-.4-.4-.9-.8-1.3-1.2a23.23291,23.23291,0,0,0,6.1.7,47.45122,47.45122,0,0,0,18.1-4.1,53.0628,53.0628,0,0,0,17-10.9c-3.5,6-10.1,12.3-20.8,17.1-8.1,2-15.2,1.5-19.1-1.6M86.2,41.6A68.08362,68.08362,0,0,0,72.1,29.3C59.5,21,46.3,18,40,21.9Q35.5,24.75,33.1,33c-4.6,5.4-6.9,16.5-7.1,34.5-.3,18.8,2.5,30.7,8.3,35.3,2.7,2.1,6.6,3.2,11.4,3.2a47.451,47.451,0,0,0,18.1-4.1c.4-.2.9-.4,1.3-.6a57.94971,57.94971,0,0,0,8.3-2.8C91.4,91,99,78.9,100,70.2,101.5,59.7,94.8,49.4,86.2,41.6"/>
      </g>
    </g>
  </g>
</svg>
